<svg width="513" height="513" viewBox="0 0 513 513" fill="none" xmlns="http://www.w3.org/2000/svg">
<path d="M231.304 360.957C235.05 365.214 239.001 369.259 243.163 373.091H6.50045H4.50045V375.091V385.847V387.847H6.50045H261.828C268.621 392.431 275.778 396.494 283.254 399.994H6.50045H4.50045V401.994V412.75V414.75H6.50045H349.774C436.734 414.75 507.5 343.869 507.5 256.75C507.5 169.631 436.749 98.75 349.774 98.75C289.581 98.75 237.167 132.711 210.592 182.472C206.558 162.402 196.699 143.916 182.188 129.37L182.188 129.369L182.09 129.271C141.528 88.6376 75.519 88.6365 34.969 129.269C25.2761 138.923 17.5921 150.407 12.3621 163.056C7.13205 175.706 4.45993 189.269 4.50045 202.96C4.50119 229.33 14.2269 254.215 31.9684 273.497L33.3242 274.971L34.7961 273.613L42.7024 266.322L44.1737 264.965L42.8157 263.495C27.6047 247.027 19.1804 225.4 19.2373 202.962V202.957C19.2373 179.07 28.5234 156.6 45.3968 139.711L45.3973 139.71C80.2013 104.845 136.857 104.846 171.646 139.683L171.757 139.794C171.757 139.794 171.758 139.794 171.758 139.794C180.75 148.803 187.717 159.633 192.194 171.559C196.67 183.484 198.552 196.231 197.713 208.944L197.713 208.944C195.616 240.795 177.677 260.867 164.188 273.328L85.1857 346.202H67.2973L155.983 264.408L155.985 264.407C168.695 252.662 183.833 235.48 185.627 208.16C186.352 197.17 184.727 186.153 180.858 175.843C176.99 165.534 170.969 156.171 163.197 148.381L163.195 148.379C148.712 133.903 129.087 125.772 108.626 125.772C88.166 125.772 68.542 133.902 54.0591 148.378C46.875 155.545 41.1819 164.07 37.3089 173.456C33.4365 182.842 31.4607 192.903 31.496 203.059C31.4969 222.58 38.6547 240.997 51.7381 255.279L53.0923 256.758L54.5673 255.4L62.4735 248.122L63.9385 246.774L62.5966 245.303C51.7497 233.413 45.8934 217.792 46.2457 201.687C46.598 185.584 53.1312 170.236 64.4864 158.833C76.2051 147.117 92.0848 140.537 108.64 140.537C125.195 140.537 141.075 147.116 152.793 158.833C159.082 165.135 163.954 172.709 167.083 181.05C170.213 189.391 171.528 198.306 170.94 207.198L170.94 207.199C169.499 229.161 157.001 243.405 146.005 253.563L45.5569 346.216H27.4735L137.703 244.559L137.704 244.558C147.269 235.724 157.589 224.053 158.757 206.315L158.757 206.315C159.207 199.431 158.244 192.527 155.925 186.031C153.606 179.535 149.982 173.584 145.276 168.547C140.57 163.509 134.882 159.492 128.564 156.744C122.246 153.996 115.432 152.576 108.544 152.571H108.543C95.0993 152.571 82.4588 157.81 72.9504 167.336L72.9487 167.337C63.7847 176.539 58.5182 188.926 58.2451 201.92C57.9719 214.913 62.7132 227.512 71.4822 237.092L72.8389 238.574L74.3147 237.21L82.207 229.919L83.6678 228.569L82.3264 227.101C76.1356 220.324 72.7901 211.417 72.9869 202.231C73.1837 193.046 76.9074 184.291 83.3827 177.786C88.5029 172.661 95.0611 169.221 102.182 167.925C109.305 166.63 116.652 167.541 123.244 170.537C129.837 173.533 135.361 178.471 139.08 184.695C142.799 190.918 144.535 198.13 144.056 205.368C143.811 209.057 143.123 212.96 140.848 217.49C138.559 222.048 134.611 227.344 127.699 233.712L127.698 233.712L5.14459 346.731L4.50045 347.325V348.202V358.957V360.957H6.50045H231.304ZM174.167 284.173C179.825 278.952 186.267 272.44 192.236 264.396C193.685 294.651 203.66 322.713 219.818 346.202H106.925L174.166 284.173L174.167 284.173ZM350.22 361.167C407.93 361.167 454.708 314.302 454.708 256.499C454.708 198.695 407.93 151.83 350.22 151.83C292.509 151.83 245.731 198.695 245.731 256.499C245.731 314.302 292.509 361.167 350.22 361.167ZM439.553 256.499C439.553 305.928 399.554 345.992 350.22 345.992C300.886 345.992 260.887 305.928 260.887 256.499C260.887 207.069 300.886 167.005 350.22 167.005C399.554 167.005 439.553 207.069 439.553 256.499ZM349.774 399.98C270.926 399.98 206.784 335.73 206.784 256.75C206.784 177.756 270.927 113.506 349.774 113.506C428.606 113.506 492.749 177.756 492.749 256.75C492.749 335.73 428.607 399.98 349.774 399.98ZM349.774 125.639C277.593 125.639 218.889 184.451 218.889 256.75C218.889 329.035 277.593 387.847 349.774 387.847C421.94 387.847 480.644 329.035 480.644 256.75C480.644 184.452 421.94 125.639 349.774 125.639ZM349.774 373.091C285.735 373.091 233.64 320.909 233.64 256.75C233.64 192.604 285.735 140.409 349.774 140.409C413.798 140.409 465.907 192.591 465.907 256.75C465.907 320.896 413.798 373.091 349.774 373.091Z" stroke-width="4"/>

 <style>
        path { fill: #000; stroke: #000; }
        @media (prefers-color-scheme: dark) {
            path { fill: #FFF; stroke: #fff; }
        }
    </style>
</svg>


