<svg width="96" height="75" viewBox="0 0 96 75" fill="none" xmlns="http://www.w3.org/2000/svg">
<path d="M5.88501 68.0707C5.84849 67.7024 5.69173 67.4163 5.41474 67.2124C5.13775 67.0084 4.76184 66.9065 4.287 66.9065C3.96435 66.9065 3.69193 66.9521 3.46973 67.0434C3.24753 67.1317 3.07708 67.255 2.95837 67.4132C2.8427 67.5715 2.78487 67.7511 2.78487 67.952C2.77878 68.1194 2.81379 68.2655 2.88988 68.3903C2.96902 68.5151 3.07708 68.6232 3.21405 68.7145C3.35102 68.8028 3.5093 68.8804 3.68889 68.9473C3.86847 69.0113 4.06024 69.066 4.26417 69.1117L5.10427 69.3126C5.51214 69.4039 5.88653 69.5257 6.22744 69.6779C6.56835 69.83 6.8636 70.0172 7.1132 70.2394C7.36279 70.4616 7.55608 70.7234 7.69305 71.0248C7.83306 71.3261 7.90459 71.6716 7.90764 72.0612C7.90459 72.6334 7.75849 73.1296 7.46933 73.5496C7.18321 73.9666 6.76925 74.2908 6.22744 74.5221C5.68869 74.7504 5.03883 74.8645 4.27787 74.8645C3.523 74.8645 2.86553 74.7489 2.30547 74.5175C1.74845 74.2862 1.31318 73.9438 0.999663 73.4903C0.689192 73.0337 0.526347 72.469 0.511128 71.7964H2.42418C2.44548 72.1099 2.53528 72.3716 2.69356 72.5817C2.85488 72.7887 3.06947 72.9454 3.33733 73.0519C3.60823 73.1554 3.91413 73.2072 4.25504 73.2072C4.58986 73.2072 4.88055 73.1585 5.1271 73.0611C5.37669 72.9637 5.56998 72.8282 5.70695 72.6547C5.84392 72.4812 5.91241 72.2819 5.91241 72.0566C5.91241 71.8466 5.85001 71.67 5.72521 71.527C5.60346 71.3839 5.42387 71.2622 5.18645 71.1617C4.95208 71.0613 4.66444 70.97 4.32353 70.8878L3.30537 70.6321C2.51701 70.4403 1.89455 70.1405 1.43797 69.7327C0.9814 69.3248 0.754635 68.7754 0.757679 68.0844C0.754635 67.5183 0.905304 67.0236 1.20969 66.6005C1.51711 66.1775 1.93868 65.8472 2.4744 65.6098C3.01011 65.3724 3.61888 65.2536 4.3007 65.2536C4.99469 65.2536 5.60041 65.3724 6.11787 65.6098C6.63836 65.8472 7.04319 66.1775 7.33235 66.6005C7.62152 67.0236 7.77067 67.5137 7.7798 68.0707H5.88501Z" fill="black"/>
<path d="M19.8873 70.0568C19.8873 71.0765 19.694 71.944 19.3074 72.6593C18.9239 73.3746 18.4004 73.921 17.7368 74.2984C17.0763 74.6728 16.3336 74.86 15.5087 74.86C14.6778 74.86 13.932 74.6713 13.2715 74.2938C12.611 73.9164 12.089 73.37 11.7055 72.6547C11.3219 71.9394 11.1302 71.0735 11.1302 70.0568C11.1302 69.0371 11.3219 68.1696 11.7055 67.4543C12.089 66.739 12.611 66.1942 13.2715 65.8198C13.932 65.4424 14.6778 65.2536 15.5087 65.2536C16.3336 65.2536 17.0763 65.4424 17.7368 65.8198C18.4004 66.1942 18.9239 66.739 19.3074 67.4543C19.694 68.1696 19.8873 69.0371 19.8873 70.0568ZM17.8829 70.0568C17.8829 69.3963 17.784 68.8393 17.5862 68.3858C17.3913 67.9322 17.1159 67.5883 16.7598 67.3539C16.4036 67.1195 15.9866 67.0023 15.5087 67.0023C15.0309 67.0023 14.6139 67.1195 14.2577 67.3539C13.9016 67.5883 13.6246 67.9322 13.4268 68.3858C13.232 68.8393 13.1346 69.3963 13.1346 70.0568C13.1346 70.7173 13.232 71.2743 13.4268 71.7279C13.6246 72.1814 13.9016 72.5254 14.2577 72.7597C14.6139 72.9941 15.0309 73.1113 15.5087 73.1113C15.9866 73.1113 16.4036 72.9941 16.7598 72.7597C17.1159 72.5254 17.3913 72.1814 17.5862 71.7279C17.784 71.2743 17.8829 70.7173 17.8829 70.0568Z" fill="black"/>
<path d="M23.4089 65.3815H25.847L28.4221 71.664H28.5317L31.1067 65.3815H33.5449V74.7321H31.6272V68.646H31.5496L29.1298 74.6865H27.824L25.4041 68.6232H25.3265V74.7321H23.4089V65.3815Z" fill="black"/>
<path d="M37.2308 74.7321V65.3815H43.5316V67.0115H39.2078V69.2395H43.2074V70.8695H39.2078V73.1022H43.5498V74.7321H37.2308Z" fill="black"/>
<path d="M46.8043 67.0115V65.3815H54.4839V67.0115H51.6212V74.7321H49.6671V67.0115H46.8043Z" fill="black"/>
<path d="M57.8058 74.7321V65.3815H59.7827V69.2395H63.796V65.3815H65.7684V74.7321H63.796V70.8695H59.7827V74.7321H57.8058Z" fill="black"/>
<path d="M71.4325 65.3815V74.7321H69.4555V65.3815H71.4325Z" fill="black"/>
<path d="M82.9373 65.3815V74.7321H81.2297L77.1617 68.8469H77.0932V74.7321H75.1162V65.3815H76.8512L80.8873 71.2622H80.9695V65.3815H82.9373Z" fill="black"/>
<path d="M92.8281 68.404C92.7642 68.1818 92.6744 67.9855 92.5588 67.815C92.4431 67.6415 92.3016 67.4954 92.1342 67.3767C91.9698 67.255 91.7811 67.1621 91.568 67.0982C91.358 67.0343 91.1251 67.0023 90.8694 67.0023C90.3916 67.0023 89.9715 67.121 89.6093 67.3585C89.2501 67.5959 88.9701 67.9414 88.7692 68.3949C88.5683 68.8454 88.4679 69.3963 88.4679 70.0477C88.4679 70.6991 88.5668 71.253 88.7646 71.7096C88.9625 72.1662 89.2425 72.5147 89.6047 72.7552C89.9669 72.9926 90.3946 73.1113 90.8877 73.1113C91.3351 73.1113 91.7172 73.0322 92.0337 72.8739C92.3533 72.7126 92.5968 72.4858 92.7642 72.1936C92.9347 71.9014 93.0199 71.5559 93.0199 71.1572L93.4217 71.2165H91.011V69.7281H94.9238V70.906C94.9238 71.7279 94.7503 72.434 94.4033 73.0246C94.0563 73.612 93.5785 74.0655 92.9697 74.3851C92.3609 74.7017 91.6639 74.86 90.8786 74.86C90.002 74.86 89.2319 74.6667 88.5683 74.2801C87.9048 73.8905 87.3873 73.3381 87.0159 72.6228C86.6476 71.9044 86.4635 71.0521 86.4635 70.0659C86.4635 69.308 86.5731 68.6323 86.7922 68.0388C87.0144 67.4422 87.3249 66.9369 87.7236 66.5229C88.1224 66.109 88.5866 65.7939 89.1162 65.5778C89.6458 65.3617 90.2196 65.2536 90.8375 65.2536C91.3671 65.2536 91.8602 65.3313 92.3168 65.4865C92.7734 65.6387 93.1782 65.8548 93.5313 66.1348C93.8874 66.4149 94.1781 66.7482 94.4033 67.1347C94.6286 67.5183 94.7732 67.9414 94.8371 68.404H92.8281Z" fill="black"/>
<path fill-rule="evenodd" clip-rule="evenodd" d="M85.714 29.8661C85.714 40.7392 76.8997 49.5536 66.0265 49.5536C55.1534 49.5536 46.339 40.7392 46.339 29.8661C46.339 18.993 55.1534 10.1786 66.0265 10.1786C76.8997 10.1786 85.714 18.993 85.714 29.8661ZM66.0265 47.4107C75.7162 47.4107 83.5712 39.5557 83.5712 29.8661C83.5712 20.1764 75.7162 12.3214 66.0265 12.3214C56.3369 12.3214 48.4819 20.1764 48.4819 29.8661C48.4819 39.5557 56.3369 47.4107 66.0265 47.4107Z" fill="black"/>
<path d="M65.9408 0C54.1176 0 43.8748 6.89732 39.0212 16.875C38.4268 12.6666 36.4809 8.76529 33.4766 5.75893L33.4578 5.74018C25.8158 -1.90179 13.3792 -1.90179 5.73995 5.74018C3.91382 7.55557 2.46614 9.71534 1.4808 12.0943C0.495459 14.4733 -0.00794233 17.0242 -0.000233214 19.5991C-0.000233214 24.5598 1.83191 29.2393 5.17477 32.8661L6.69352 31.4679C3.70573 28.2388 2.0511 23.9984 2.06227 19.5991C2.06227 14.917 3.88637 10.5107 7.19977 7.2C14.0355 0.364285 25.1623 0.364286 31.9953 7.19464L32.0167 7.21607C33.7828 8.98235 35.1511 11.1055 36.0302 13.4434C36.9093 15.7813 37.2788 18.28 37.114 20.7723C36.7015 27.0268 33.1685 30.9616 30.5516 33.375L15.2649 47.4509H10.6953L28.4542 31.1009C30.8703 28.8723 33.6908 25.6634 34.0257 20.5714C34.1614 18.5185 33.8572 16.4603 33.1334 14.5345C32.4095 12.6087 31.2827 10.8597 29.8283 9.40446C27.1182 6.70036 23.4461 5.18171 19.6176 5.18171C15.7892 5.18171 12.117 6.70036 9.40691 9.40446C8.06285 10.7431 6.99769 12.3351 6.27307 14.0883C5.54846 15.8414 5.1788 17.7209 5.18548 19.6179C5.18548 23.2661 6.52477 26.7054 8.97298 29.3732L10.4917 27.9777C8.34152 25.6248 7.18069 22.5338 7.25053 19.3472C7.32037 16.1605 8.6155 13.1234 10.8667 10.867C13.1898 8.54822 16.338 7.24593 19.6203 7.24593C22.9026 7.24593 26.0508 8.54822 28.3739 10.867C29.6204 12.114 30.5863 13.613 31.2066 15.2635C31.827 16.9141 32.0877 18.6781 31.9712 20.4375C31.6846 24.7982 29.1935 27.6161 27.0587 29.5848L7.65245 47.4536H3.0453L24.9426 27.2946C26.7614 25.6179 28.6498 23.467 28.8641 20.2179C28.9472 18.9501 28.7694 17.6787 28.3417 16.4823C27.9139 15.286 27.2453 14.1901 26.3771 13.2624C25.509 12.3348 24.4597 11.5951 23.2943 11.089C22.1289 10.583 20.8721 10.3215 19.6016 10.3205C17.1212 10.3205 14.7908 11.2848 13.0364 13.0393C11.3458 14.7338 10.3742 17.0152 10.3238 19.4082C10.2734 21.8013 11.1481 24.1215 12.7658 25.8857L14.2819 24.4875C13.026 23.1152 12.3475 21.3115 12.3874 19.4517C12.4273 17.5919 13.1826 15.819 14.4962 14.5018C15.5351 13.4634 16.8659 12.7666 18.311 12.5041C19.7562 12.2417 21.2471 12.4262 22.5847 13.033C23.9223 13.6398 25.043 14.6401 25.7974 15.9004C26.5518 17.1606 26.904 18.621 26.8069 20.0866C26.7078 21.5732 26.2444 23.2929 23.5417 25.7786L-0.000233214 47.4509V49.5134H43.3578C44.3221 50.6196 45.3587 51.6509 46.4703 52.6071H-0.000233214V54.6696H49.1649C50.9864 55.9071 52.9471 56.9464 55.023 57.7661H-0.000233214V59.8286H65.9408C82.4328 59.8286 95.8551 46.4089 95.8551 29.9143C95.8551 13.4196 82.4355 0 65.9408 0ZM18.3078 47.4509L31.9471 34.8911C33.2382 33.7018 34.7328 32.1696 36.0292 30.2143C36.0935 36.6429 38.1935 42.5946 41.7185 47.4509H18.3078ZM65.9408 57.7634C50.5819 57.7634 38.089 45.2705 38.089 29.9143C38.089 14.5554 50.5819 2.0625 65.9408 2.0625C81.2971 2.0625 93.7899 14.5554 93.7899 29.9143C93.7899 45.2705 81.2971 57.7634 65.9408 57.7634Z" fill="black"/>
<path d="M65.9408 5.15625C52.2882 5.15625 41.1828 16.2616 41.1828 29.9143C41.1828 43.5643 52.2882 54.6696 65.9408 54.6696C79.5908 54.6696 90.6962 43.5643 90.6962 29.9143C90.6962 16.2616 79.5908 5.15625 65.9408 5.15625ZM65.9408 52.6071C53.4265 52.6071 43.248 42.4286 43.248 29.9143C43.248 17.4027 53.4265 7.22143 65.9408 7.22143C78.4524 7.22143 88.6337 17.4 88.6337 29.9143C88.6337 42.4259 78.4524 52.6071 65.9408 52.6071Z" fill="black"/>
</svg>
