<svg width="362" height="231" viewBox="0 0 362 231" fill="none" xmlns="http://www.w3.org/2000/svg">
<path d="M20.1544 124.343C18.4558 125.768 15.9136 125.553 14.5838 123.778C8.75553 116.001 4.53044 107.127 2.17128 97.6718C-0.51235 86.9158 -0.71103 75.6898 1.59031 64.8456C3.89165 54.0013 8.63256 43.8237 15.4534 35.0847C21.4495 27.4022 28.9146 21.009 37.3991 16.2695C39.3349 15.1881 41.7454 16.0239 42.7188 18.0163C43.6921 20.0087 42.8588 22.402 40.9303 23.4966C33.5382 27.6921 27.0292 33.3044 21.7835 40.0254C15.713 47.8031 11.4936 56.8612 9.44537 66.5126C7.39718 76.1639 7.57401 86.155 9.96243 95.7279C12.0263 104 15.6949 111.772 20.7459 118.608C22.0636 120.392 21.8531 122.917 20.1544 124.343Z" fill="currentColor"/>
<path d="M50.5041 14.786C49.781 12.6898 50.8917 10.3929 53.0245 9.78616C60.9378 7.53488 69.1843 6.63484 77.4157 7.13366C86.9847 7.71354 96.3457 10.1725 104.964 14.3701C113.583 18.5677 121.29 24.4218 127.647 31.5981C133.114 37.7713 137.49 44.8189 140.597 52.4372C141.434 54.4905 140.31 56.781 138.214 57.5041C136.118 58.2272 133.844 57.1083 132.993 55.0607C130.239 48.4369 126.404 42.306 121.636 36.9223C115.978 30.5354 109.119 25.3253 101.448 21.5894C93.7777 17.8535 85.4464 15.665 76.93 15.149C69.7514 14.7139 62.5597 15.4743 55.647 17.3903C53.5101 17.9825 51.2272 16.8822 50.5041 14.786Z" fill="currentColor"/>
<path d="M34.7361 112.107C33.0226 113.545 30.4543 113.33 29.149 111.513C25.5904 106.562 22.8904 101.034 21.1726 95.1633C19.0751 87.9941 18.4878 80.4678 19.4478 73.06C20.4078 65.6523 22.8942 58.5243 26.7499 52.1266C30.6055 45.729 35.7465 40.2008 41.8479 35.8916C47.9493 31.5824 54.8784 28.586 62.197 27.0916C69.5157 25.5973 77.0648 25.6376 84.3671 27.2099C91.6694 28.7823 98.5661 31.8526 104.621 36.2267C109.58 39.8089 113.886 44.2017 117.363 49.2112C118.638 51.0488 117.982 53.5413 116.054 54.6753C114.126 55.8093 111.658 55.1533 110.359 53.3328C107.466 49.2806 103.928 45.7185 99.878 42.7927C94.7312 39.0747 88.869 36.465 82.6621 35.1285C76.4551 33.7919 70.0384 33.7577 63.8175 35.0279C57.5966 36.2981 51.7069 38.8451 46.5207 42.5079C41.3345 46.1707 36.9647 50.8696 33.6874 56.3076C30.4101 61.7457 28.2966 67.8045 27.4806 74.101C26.6647 80.3976 27.1639 86.795 28.9467 92.8888C30.3498 97.6843 32.5238 102.21 35.3754 106.291C36.6566 108.124 36.4495 110.669 34.7361 112.107Z" fill="currentColor"/>
<path d="M119.862 62.7087C121.96 61.9344 124.305 63.0048 124.92 65.1554C127.539 74.315 127.694 84.0304 125.334 93.3097C122.974 102.589 118.196 111.05 111.519 117.845C109.952 119.441 107.381 119.261 105.907 117.578C104.434 115.895 104.618 113.348 106.164 111.732C111.619 106.032 115.528 99.0033 117.484 91.3132C119.44 83.6231 119.363 75.5808 117.295 67.9674C116.708 65.8088 117.763 63.483 119.862 62.7087Z" fill="currentColor"/>
<path d="M48.8696 100.248C47.3889 101.49 45.1648 101.306 44.0763 99.7084C40.8575 94.9845 38.8342 89.5279 38.2081 83.8104C37.4544 76.9292 38.7583 69.979 41.9546 63.8388C45.151 57.6986 50.0964 52.6441 56.1654 49.3146C62.2344 45.985 69.1545 44.5299 76.0505 45.1332C82.9465 45.7365 89.5087 48.3712 94.9073 52.7041C100.306 57.0369 104.299 62.8734 106.38 69.4753C108.462 76.0773 108.539 83.1482 106.602 89.794C104.992 95.316 102.052 100.338 98.062 104.432C96.7127 105.816 94.4903 105.611 93.2478 104.13C92.0053 102.65 92.2176 100.455 93.5319 99.038C96.4792 95.8594 98.6596 92.0273 99.8814 87.8352C101.431 82.5186 101.369 76.8618 99.7041 71.5803C98.0388 66.2987 94.8448 61.6295 90.5259 58.1632C86.207 54.697 80.9572 52.5892 75.4404 52.1066C69.9236 51.6239 64.3875 52.788 59.5323 55.4517C54.6771 58.1153 50.7208 62.1589 48.1637 67.0711C45.6066 71.9832 44.5636 77.5433 45.1664 83.0483C45.6418 87.3888 47.1236 91.5414 49.4742 95.1834C50.5224 96.8075 50.3504 99.0053 48.8696 100.248Z" fill="currentColor"/>
<path fill-rule="evenodd" clip-rule="evenodd" d="M26 187.826C26 185.617 27.7909 183.826 30 183.826L141.5 183.826C143.709 183.826 145.5 185.617 145.5 187.826C145.5 190.035 143.709 191.826 141.5 191.826L30 191.826C27.7909 191.826 26 190.035 26 187.826Z" fill="currentColor"/>
<path fill-rule="evenodd" clip-rule="evenodd" d="M105.5 207.1C105.5 204.891 107.291 203.1 109.5 203.1H190C192.209 203.1 194 204.891 194 207.1C194 209.309 192.209 211.1 190 211.1H109.5C107.291 211.1 105.5 209.309 105.5 207.1Z" fill="currentColor"/>
<path fill-rule="evenodd" clip-rule="evenodd" d="M3 207.1C3 204.891 4.79086 203.1 7 203.1H95.2551C97.4643 203.1 99.2551 204.891 99.2551 207.1C99.2551 209.309 97.4643 211.1 95.2551 211.1H7C4.79086 211.1 3 209.309 3 207.1Z" fill="currentColor"/>
<path fill-rule="evenodd" clip-rule="evenodd" d="M83.25 226.36C83.25 224.151 85.0409 222.36 87.25 222.36L238 222.36C240.209 222.36 242 224.151 242 226.36C242 228.569 240.209 230.36 238 230.36L87.25 230.36C85.0409 230.36 83.25 228.569 83.25 226.36Z" fill="currentColor"/>
<path fill-rule="evenodd" clip-rule="evenodd" d="M3 226.36C3 224.151 4.79086 222.36 7 222.36H71C73.2091 222.36 75 224.151 75 226.36C75 228.569 73.2091 230.36 71 230.36H7C4.79086 230.36 3 228.569 3 226.36Z" fill="currentColor"/>
<path d="M246.75 5.44999C246.75 2.915 244.694 0.850404 242.161 0.95176C221.627 1.77344 201.659 8.09725 184.364 19.3005C165.783 31.3367 151.08 48.4911 142.029 68.6951C132.977 88.8992 129.964 111.29 133.351 133.168C136.504 153.532 145.078 172.643 158.134 188.513C159.745 190.47 162.654 190.63 164.546 188.943C166.437 187.255 166.594 184.36 164.991 182.396C153.11 167.852 145.305 150.377 142.423 131.764C139.307 111.636 142.079 91.036 150.406 72.4483C158.734 53.8606 172.26 38.0786 189.355 27.0052C205.163 16.765 223.399 10.9559 242.161 10.1397C244.694 10.0296 246.75 7.98497 246.75 5.44999Z" fill="currentColor"/>
<path d="M253.289 225.576C253.44 228.106 255.615 230.045 258.137 229.794C271.584 228.453 284.701 224.745 296.879 218.831C310.434 212.248 322.56 203.06 332.564 191.791C342.568 180.521 350.255 167.392 355.185 153.152C359.614 140.36 361.741 126.896 361.478 113.384C361.429 110.85 359.246 108.92 356.716 109.071C354.185 109.221 352.266 111.395 352.307 113.93C352.503 126.237 350.545 138.495 346.51 150.149C341.974 163.25 334.903 175.329 325.699 185.696C316.495 196.064 305.339 204.517 292.868 210.574C281.775 215.961 269.835 219.358 257.591 220.622C255.07 220.882 253.139 223.045 253.289 225.576Z" fill="currentColor"/>
<path d="M302.354 183.791C303.97 185.773 306.896 186.077 308.794 184.364C318.616 175.501 326.439 164.623 331.716 152.452C337.609 138.863 340.156 124.059 339.144 109.283C338.132 94.5059 333.59 80.1874 325.901 67.5287C318.211 54.87 307.597 44.2403 294.95 36.5316C282.303 28.8229 267.991 24.2601 253.216 23.226C238.441 22.1919 223.633 24.7167 210.035 30.5885C196.438 36.4604 184.447 45.508 175.069 56.9721C166.669 67.2399 160.585 79.1778 157.208 91.9693C156.555 94.4419 158.167 96.9026 160.669 97.431C163.171 97.9594 165.615 96.355 166.282 93.886C169.344 82.5427 174.775 71.9571 182.237 62.8359C190.677 52.5182 201.469 44.3753 213.707 39.0907C225.945 33.806 239.272 31.5337 252.569 32.4644C265.867 33.3951 278.747 37.5016 290.13 44.4395C301.512 51.3773 311.065 60.944 317.985 72.3369C324.906 83.7297 328.993 96.6163 329.904 109.915C330.815 123.214 328.523 136.538 323.22 148.768C318.532 159.579 311.612 169.258 302.933 177.177C301.044 178.901 300.738 181.809 302.354 183.791Z" fill="currentColor"/>
<path d="M288.475 166.773C290.077 168.738 292.98 169.042 294.836 167.316C305.334 157.554 312.639 144.798 315.723 130.724C319.136 115.153 317.178 98.8845 310.17 84.5666C303.161 70.2487 291.514 58.7236 277.123 51.8664C264.117 45.6691 249.561 43.6141 235.412 45.9161C232.911 46.3231 231.37 48.8023 231.939 51.2724C232.508 53.7426 234.97 55.266 237.476 54.8833C249.6 53.0316 262.04 54.8474 273.175 60.1531C285.695 66.1188 295.828 76.1456 301.925 88.6022C308.023 101.059 309.726 115.212 306.757 128.76C304.117 140.808 297.92 151.747 289.02 160.185C287.181 161.93 286.873 164.809 288.475 166.773Z" fill="currentColor"/>
<path d="M223.668 53.756C222.782 51.3812 220.131 50.1606 217.819 51.1992C210.328 54.5636 203.471 59.2137 197.563 64.9499C190.556 71.7533 185.036 79.9365 181.353 88.9822C177.67 98.0278 175.904 107.739 176.165 117.502C176.427 127.266 178.711 136.868 182.874 145.704C187.037 154.539 192.987 162.415 200.349 168.833C207.71 175.251 216.324 180.072 225.644 182.992C234.964 185.911 244.788 186.865 254.496 185.794C262.681 184.89 270.633 182.564 277.996 178.93C280.269 177.808 281.016 174.987 279.749 172.792C278.482 170.596 275.682 169.86 273.398 170.96C267.143 173.972 260.412 175.906 253.489 176.67C245.043 177.602 236.496 176.772 228.388 174.232C220.279 171.692 212.785 167.498 206.381 161.914C199.976 156.33 194.799 149.478 191.178 141.792C187.556 134.105 185.569 125.75 185.341 117.256C185.114 108.762 186.651 100.314 189.855 92.4438C193.059 84.5741 197.861 77.4547 203.958 71.5357C208.954 66.6842 214.732 62.7256 221.037 59.8197C223.339 58.7587 224.554 56.1308 223.668 53.756Z" fill="currentColor"/>
<path d="M159.465 104.574C156.928 104.253 154.599 106.05 154.406 108.6C153.175 124.806 156.231 141.082 163.303 155.775C171.047 171.863 183.275 185.369 198.516 194.667C213.757 203.966 231.361 208.661 249.208 208.187C265.51 207.754 281.38 203.026 295.229 194.518C297.408 193.179 297.94 190.286 296.494 188.177C295.048 186.067 292.172 185.542 289.986 186.868C277.616 194.374 263.479 198.544 248.963 198.93C232.9 199.356 217.056 195.131 203.339 186.762C189.622 178.393 178.617 166.237 171.648 151.759C165.35 138.674 162.591 124.196 163.606 109.763C163.786 107.211 162.003 104.895 159.465 104.574Z" fill="currentColor"/>
<path d="M355.645 98.9647C358.151 98.5817 359.881 96.2373 359.398 93.7487C354.812 70.1159 342.898 48.4806 325.291 31.9504C307.683 15.4202 285.339 4.89389 261.465 1.80729C258.951 1.48226 256.72 3.35687 256.496 5.88192C256.271 8.40697 258.139 10.6254 260.651 10.9592C282.479 13.8584 302.898 23.5194 319.007 38.6431C335.117 53.7669 346.046 73.5356 350.316 95.1373C350.807 97.6242 353.139 99.3478 355.645 98.9647Z" fill="currentColor"/>
<path fill-rule="evenodd" clip-rule="evenodd" d="M48.6892 175.474C47.1271 173.912 47.1271 171.379 48.6892 169.817L95.1442 123.362C96.7063 121.8 99.2389 121.8 100.801 123.362C102.363 124.924 102.363 127.457 100.801 129.019L54.3461 175.474C52.784 177.036 50.2513 177.036 48.6892 175.474Z" fill="currentColor"/>
<path fill-rule="evenodd" clip-rule="evenodd" d="M75.4886 176.291C73.9265 174.729 73.9265 172.196 75.4886 170.634L117.061 129.061C118.623 127.499 121.156 127.499 122.718 129.061C124.28 130.623 124.28 133.156 122.718 134.718L81.1454 176.291C79.5833 177.853 77.0507 177.853 75.4886 176.291Z" fill="currentColor"/>
<path fill-rule="evenodd" clip-rule="evenodd" d="M8.40024 187.883C6.83814 186.321 6.83814 183.788 8.40024 182.226L82.6881 107.938C84.2502 106.376 86.7829 106.376 88.345 107.938C89.9071 109.5 89.9071 112.033 88.345 113.595L14.0571 187.883C12.495 189.445 9.96234 189.445 8.40024 187.883Z" fill="currentColor"/>
</svg>
